<svg width="36" height="36" fill="none" xmlns="http://www.w3.org/2000/svg"><g clip-path="url(#a)"><path fill-rule="evenodd" clip-rule="evenodd" d="m8.963 2.552.047.026 23.616 13.085c.27.15.556.307.782.46.228.156.617.448.843.947a2.25 2.25 0 0 1 0 1.86c-.226.5-.615.791-.843.946a10.11 10.11 0 0 1-.782.461L8.963 33.448c-.322.178-.646.358-.924.481-.26.115-.773.322-1.374.214a2.25 2.25 0 0 1-1.596-1.174c-.282-.541-.238-1.092-.206-1.375.034-.302.11-.665.183-1.025l1.26-6.116.043-.212c.266-1.297.467-2.275.948-3.113a6 6 0 0 1 1.689-1.876c.772-.559 1.707-.86 2.941-1.252-1.234-.392-2.169-.693-2.941-1.252a6 6 0 0 1-1.689-1.876c-.481-.838-.682-1.816-.948-3.113l-.044-.212-1.248-6.063-.01-.053c-.075-.36-.15-.723-.184-1.025-.032-.283-.076-.834.206-1.375a2.25 2.25 0 0 1 1.596-1.174c.6-.108 1.114.099 1.374.214.278.123.602.302.924.48Zm-.836 2.966 1.117 5.424c.33 1.604.444 2.07.655 2.437a3 3 0 0 0 .844.938c.344.248.795.41 2.355.907l4.232 1.347a1.5 1.5 0 0 1 0 2.858l-4.231 1.347c-1.561.496-2.012.659-2.356.907a3 3 0 0 0-.844.938c-.21.367-.325.833-.655 2.437l-1.117 5.424L30.655 18 8.127 5.518Z" fill="#000"/></g><defs><clipPath id="a"><path fill="#fff" d="M0 0h36v36H0z"/></clipPath></defs></svg>