<svg width="36" height="36" fill="none" xmlns="http://www.w3.org/2000/svg"><path fill-rule="evenodd" clip-rule="evenodd" d="M28.96 3.668c-.81-.067-1.858-.068-3.4-.068H23.4a1.8 1.8 0 0 1 0-3.6h2.234c1.45 0 2.645 0 3.62.08 1.011.082 1.941.26 2.815.705a7.2 7.2 0 0 1 3.146 3.146c.445.874.623 1.804.705 2.816.08.974.08 2.17.08 3.619v15.268c0 1.45 0 2.645-.08 3.62-.082 1.011-.26 1.941-.705 2.815a7.2 7.2 0 0 1-3.146 3.146c-.874.445-1.804.623-2.816.705-.974.08-2.17.08-3.619.08H23.4a1.8 1.8 0 0 1 0-3.6h2.16c1.542 0 2.59-.001 3.4-.068.79-.064 1.193-.18 1.474-.324a3.6 3.6 0 0 0 1.574-1.574c.143-.281.26-.685.324-1.474.067-.81.068-1.858.068-3.4V10.44c0-1.542-.001-2.59-.068-3.4-.064-.79-.18-1.193-.324-1.474a3.6 3.6 0 0 0-1.574-1.574c-.281-.143-.685-.26-1.474-.324Zm-16.887 4.06a1.8 1.8 0 0 1 0 2.545L6.146 16.2H23.4a1.8 1.8 0 0 1 0 3.6H6.146l5.927 5.927a1.8 1.8 0 0 1-2.546 2.546l-9-9a1.8 1.8 0 0 1 0-2.546l9-9a1.8 1.8 0 0 1 2.546 0Z" fill="#000"/></svg>